<?xml version="1.0" encoding="utf-8"?>
<COLLADA xmlns="http://www.collada.org/2005/11/COLLADASchema" version="1.4.1" xmlns:xsi="http://www.w3.org/2001/XMLSchema-instance">
  <asset>
    <contributor>
      <author>Blender User</author>
      <authoring_tool>Blender 4.4.1 commit date:2025-04-14, commit time:14:20, hash:d8845b3bb572</authoring_tool>
    </contributor>
    <created>2025-04-15T15:24:34</created>
    <modified>2025-04-15T15:24:34</modified>
    <unit name="meter" meter="1"/>
    <up_axis>Z_UP</up_axis>
  </asset>
  <library_effects>
    <effect id="Material_007-effect">
      <profile_COMMON>
        <newparam sid="CONVERGING_Roll-up_1-1_png-surface">
          <surface type="2D">
            <init_from>CONVERGING_Roll-up_1-1_png</init_from>
          </surface>
        </newparam>
        <newparam sid="CONVERGING_Roll-up_1-1_png-sampler">
          <sampler2D>
            <source>CONVERGING_Roll-up_1-1_png-surface</source>
          </sampler2D>
        </newparam>
        <technique sid="common">
          <lambert>
            <emission>
              <color sid="emission">0 0 0 1</color>
            </emission>
            <diffuse>
              <texture texture="CONVERGING_Roll-up_1-1_png-sampler" texcoord="UVMap"/>
            </diffuse>
            <index_of_refraction>
              <float sid="ior">1.5</float>
            </index_of_refraction>
          </lambert>
        </technique>
      </profile_COMMON>
    </effect>
  </library_effects>
  <library_images>
    <image id="CONVERGING_Roll-up_1-1_png" name="CONVERGING_Roll-up_1-1_png">
      <init_from>CONVERGING_Roll-up_1-1.png</init_from>
    </image>
  </library_images>
  <library_materials>
    <material id="Material_007-material" name="Material.007">
      <instance_effect url="#Material_007-effect"/>
    </material>
  </library_materials>
  <library_geometries>
    <geometry id="Cube_001-mesh" name="Cube.001">
      <mesh>
        <source id="Cube_001-mesh-positions">
          <float_array id="Cube_001-mesh-positions-array" count="24">-0.03417199 0.01826673 -0.9409027 -0.03417199 0.01826673 0.2448272 -0.03417199 0.8549663 -0.9409027 -0.03417199 0.8549663 0.2448272 0.04267501 0.01826673 -0.9409027 0.04267501 0.01826673 0.2448272 0.04267501 0.8549663 -0.9409027 0.04267501 0.8549663 0.2448272</float_array>
          <technique_common>
            <accessor source="#Cube_001-mesh-positions-array" count="8" stride="3">
              <param name="X" type="float"/>
              <param name="Y" type="float"/>
              <param name="Z" type="float"/>
            </accessor>
          </technique_common>
        </source>
        <source id="Cube_001-mesh-normals">
          <float_array id="Cube_001-mesh-normals-array" count="36">-1 0 0 0 1 0 1 0 0 0 -1 0 0 0 -1 0 0 1 -1 0 0 0 1 0 1 0 0 0 -1 0 0 0 -1 0 0 1</float_array>
          <technique_common>
            <accessor source="#Cube_001-mesh-normals-array" count="12" stride="3">
              <param name="X" type="float"/>
              <param name="Y" type="float"/>
              <param name="Z" type="float"/>
            </accessor>
          </technique_common>
        </source>
        <source id="Cube_001-mesh-map-0">
          <float_array id="Cube_001-mesh-map-0-array" count="72">2.00541e-4 0.4997995 0.8297457 2.00611e-4 2.00541e-4 2.00611e-4 0.8301467 0.4997995 0.9063366 2.00611e-4 0.8301467 2.00611e-4 0.8297457 0.9997995 2.00541e-4 0.5002006 0.8297457 0.5002006 0.9829277 0.4997995 0.9067378 2.00611e-4 0.9829277 2.00611e-4 0.9063366 0.8527401 0.8301467 0.5002006 0.8301467 0.8527401 0.04282313 0.9482541 0.9613398 -0.03307354 0.9613398 0.9482541 2.00541e-4 0.4997995 0.8297457 0.4997995 0.8297457 2.00611e-4 0.8301467 0.4997995 0.9063366 0.4997995 0.9063366 2.00611e-4 0.8297457 0.9997995 2.00541e-4 0.9997995 2.00541e-4 0.5002006 0.9829277 0.4997995 0.9067378 0.4997995 0.9067378 2.00611e-4 0.9063366 0.8527401 0.9063366 0.5002006 0.8301467 0.5002006 0.04282313 0.9482541 0.04282313 -0.03307354 0.9613398 -0.03307354</float_array>
          <technique_common>
            <accessor source="#Cube_001-mesh-map-0-array" count="36" stride="2">
              <param name="S" type="float"/>
              <param name="T" type="float"/>
            </accessor>
          </technique_common>
        </source>
        <vertices id="Cube_001-mesh-vertices">
          <input semantic="POSITION" source="#Cube_001-mesh-positions"/>
        </vertices>
        <triangles material="Material_007-material" count="12">
          <input semantic="VERTEX" source="#Cube_001-mesh-vertices" offset="0"/>
          <input semantic="NORMAL" source="#Cube_001-mesh-normals" offset="1"/>
          <input semantic="TEXCOORD" source="#Cube_001-mesh-map-0" offset="2" set="0"/>
          <p>1 0 0 2 0 1 0 0 2 3 1 3 6 1 4 2 1 5 7 2 6 4 2 7 6 2 8 5 3 9 0 3 10 4 3 11 6 4 12 0 4 13 2 4 14 3 5 15 5 5 16 7 5 17 1 6 18 3 6 19 2 6 20 3 7 21 7 7 22 6 7 23 7 8 24 5 8 25 4 8 26 5 9 27 1 9 28 0 9 29 6 10 30 4 10 31 0 10 32 3 11 33 1 11 34 5 11 35</p>
        </triangles>
      </mesh>
    </geometry>
  </library_geometries>
  <library_visual_scenes>
    <visual_scene id="Scene" name="Scene">
      <node id="Cube" name="Cube" type="NODE">
        <matrix sid="transform">-4.55049e-7 1.04485e-7 0.02530103 0 10.4103 4.56719e-15 1.10594e-9 -3.72529e-9 0 2.39034 -1.10594e-9 -7.10543e-15 0 0 0 1</matrix>
        <instance_geometry url="#Cube_001-mesh" name="Cube">
          <bind_material>
            <technique_common>
              <instance_material symbol="Material_007-material" target="#Material_007-material">
                <bind_vertex_input semantic="UVMap" input_semantic="TEXCOORD" input_set="0"/>
              </instance_material>
            </technique_common>
          </bind_material>
        </instance_geometry>
      </node>
    </visual_scene>
  </library_visual_scenes>
  <scene>
    <instance_visual_scene url="#Scene"/>
  </scene>
</COLLADA>